<svg id="visual" viewBox="0 0 960 540" width="960" height="540" xmlns="http://www.w3.org/2000/svg" xmlns:xlink="http://www.w3.org/1999/xlink" version="1.1"><rect x="0" y="0" width="960" height="540" fill="#06142a"></rect><path d="M0 451L22.8 438.2C45.7 425.3 91.3 399.7 137 407C182.7 414.3 228.3 454.7 274 461.3C319.7 468 365.3 441 411.2 441.2C457 441.3 503 468.7 548.8 466.2C594.7 463.7 640.3 431.3 686 413.2C731.7 395 777.3 391 823 407.5C868.7 424 914.3 461 937.2 479.5L960 498L960 541L937.2 541C914.3 541 868.7 541 823 541C777.3 541 731.7 541 686 541C640.3 541 594.7 541 548.8 541C503 541 457 541 411.2 541C365.3 541 319.7 541 274 541C228.3 541 182.7 541 137 541C91.3 541 45.7 541 22.8 541L0 541Z" fill="#ac55b6" stroke-linecap="round" stroke-linejoin="miter"></path></svg>